<?xml version="1.0" encoding="iso-8859-1"?>
<!-- Generator: Adobe Illustrator 17.1.0, SVG Export Plug-In . SVG Version: 6.00 Build 0)  -->
<!DOCTYPE svg PUBLIC "-//W3C//DTD SVG 1.1//EN" "http://www.w3.org/Graphics/SVG/1.1/DTD/svg11.dtd">
<svg version="1.1" id="Capa_1" xmlns="http://www.w3.org/2000/svg" xmlns:xlink="http://www.w3.org/1999/xlink" x="0px" y="0px"
	 viewBox="0 0 185.976 185.976" style="enable-background:new 0 0 185.976 185.976;" xml:space="preserve">
<path d="M179.548,37.801L37.806,179.544c-4.148,4.147-9.663,6.432-15.529,6.432s-11.381-2.284-15.529-6.432l-0.318-0.32
	c-4.14-4.139-6.424-9.653-6.424-15.52s2.284-11.381,6.432-15.529L148.179,6.432C152.328,2.284,157.842,0,163.708,0
	s11.381,2.284,15.529,6.432l0.318,0.32C188.11,15.306,188.11,29.238,179.548,37.801z M185.781,149.177
	c0.757,9.596-2.408,18.755-8.911,25.79c-6.412,6.938-15.507,10.918-24.95,10.918c-0.907,0-1.829-0.036-2.738-0.108
	c-16.446-1.297-29.827-14.678-31.124-31.124c-0.757-9.596,2.407-18.755,8.91-25.791c7.029-7.604,17.315-11.631,27.688-10.81
	C171.103,119.349,184.484,132.729,185.781,149.177z M141.612,152.772c0.394,4.993,4.456,9.056,9.448,9.449
	c3.26,0.255,6.281-0.938,8.456-3.292c1.979-2.141,2.941-4.938,2.71-7.873c-0.394-4.993-4.456-9.056-9.448-9.449
	c-0.29-0.022-0.575-0.034-0.859-0.034c-2.917,0-5.615,1.182-7.597,3.326C142.342,147.04,141.38,149.837,141.612,152.772z
	 M0.204,36.799c-0.757-9.596,2.407-18.755,8.91-25.79C16.143,3.403,26.42-0.627,36.804,0.199
	C53.25,1.496,66.631,14.877,67.928,31.324c0.757,9.596-2.408,18.754-8.911,25.79c-6.412,6.938-15.507,10.918-24.95,10.918
	c-0.001,0,0,0-0.001,0c-0.907,0-1.828-0.036-2.737-0.108C14.882,66.627,1.501,53.246,0.204,36.799z M44.373,33.203
	c-0.394-4.993-4.456-9.055-9.449-9.449c-0.288-0.022-0.573-0.033-0.857-0.033c-2.917,0-5.615,1.181-7.598,3.325
	c-1.979,2.142-2.941,4.938-2.71,7.873c0.394,4.993,4.456,9.056,9.448,9.449c3.269,0.254,6.282-0.938,8.456-3.292
	C43.643,38.936,44.605,36.139,44.373,33.203z"/>
<g>
</g>
<g>
</g>
<g>
</g>
<g>
</g>
<g>
</g>
<g>
</g>
<g>
</g>
<g>
</g>
<g>
</g>
<g>
</g>
<g>
</g>
<g>
</g>
<g>
</g>
<g>
</g>
<g>
</g>
</svg>
