<?xml version="1.0" encoding="iso-8859-1"?>
<!-- Generator: Adobe Illustrator 19.0.0, SVG Export Plug-In . SVG Version: 6.00 Build 0)  -->
<svg version="1.1" id="Layer_1" xmlns="http://www.w3.org/2000/svg" xmlns:xlink="http://www.w3.org/1999/xlink" x="0px" y="0px"
	 viewBox="0 0 355.483 355.483" style="enable-background:new 0 0 355.483 355.483;" xml:space="preserve">
<g>
	
		<rect x="-33.792" y="135.084" transform="matrix(-0.7071 -0.7071 0.7071 -0.7071 172.9173 417.4058)" style="fill:#77B8E8;" width="413.396" height="75.612"/>
	
		<rect x="317.033" y="286.098" transform="matrix(0.7071 0.7071 -0.7071 0.7071 323.899 -134.1542)" style="fill:#009BDE;" width="13.709" height="75.611"/>
	<g>
		
			<rect x="48.391" y="9.587" transform="matrix(-0.7071 -0.7071 0.7071 -0.7071 70.6175 91.2254)" style="fill:#333E48;" width="11.622" height="42.801"/>
		
			<rect x="74.208" y="32.999" transform="matrix(-0.7071 -0.7071 0.7071 -0.7071 102.2277 139.5659)" style="fill:#333E48;" width="11.622" height="31.225"/>
		
			<rect x="91.827" y="53.021" transform="matrix(-0.7071 -0.7071 0.7071 -0.7071 114.0551 196.0863)" style="fill:#333E48;" width="11.622" height="42.801"/>
		
			<rect x="117.638" y="76.433" transform="matrix(-0.7071 -0.7071 0.7071 -0.7071 145.6527 244.4219)" style="fill:#333E48;" width="11.62" height="31.225"/>
		
			<rect x="135.266" y="96.455" transform="matrix(-0.7071 -0.7071 0.7071 -0.7071 157.4975 300.9501)" style="fill:#333E48;" width="11.623" height="42.802"/>
		
			<rect x="161.079" y="119.868" transform="matrix(-0.7071 -0.7071 0.7071 -0.7071 189.0988 349.287)" style="fill:#333E48;" width="11.62" height="31.225"/>
		
			<rect x="178.706" y="139.889" transform="matrix(-0.7071 -0.7071 0.7071 -0.7071 200.9397 405.8112)" style="fill:#333E48;" width="11.62" height="42.802"/>
		
			<rect x="204.508" y="163.303" transform="matrix(-0.7071 -0.7071 0.7071 -0.7071 232.5231 454.1451)" style="fill:#333E48;" width="11.62" height="31.225"/>
		
			<rect x="222.131" y="183.325" transform="matrix(-0.7071 -0.7071 0.7071 -0.7071 244.3575 510.6671)" style="fill:#333E48;" width="11.62" height="42.802"/>
		
			<rect x="247.925" y="206.739" transform="matrix(-0.7071 -0.7071 0.7071 -0.7071 275.9254 558.9948)" style="fill:#333E48;" width="11.618" height="31.226"/>
		
			<rect x="265.56" y="226.76" transform="matrix(-0.707 -0.7072 0.7072 -0.707 287.7294 615.5261)" style="fill:#333E48;" width="11.62" height="42.801"/>
		
			<rect x="308.977" y="270.195" transform="matrix(-0.7071 -0.7071 0.7071 -0.7071 331.1868 720.3718)" style="fill:#333E48;" width="11.62" height="42.801"/>
		
			<rect x="291.364" y="250.172" transform="matrix(-0.7072 -0.707 0.707 -0.7072 319.4261 663.8541)" style="fill:#333E48;" width="11.62" height="31.227"/>
	</g>
</g>
<g>
</g>
<g>
</g>
<g>
</g>
<g>
</g>
<g>
</g>
<g>
</g>
<g>
</g>
<g>
</g>
<g>
</g>
<g>
</g>
<g>
</g>
<g>
</g>
<g>
</g>
<g>
</g>
<g>
</g>
</svg>
